<svg xmlns="http://www.w3.org/2000/svg" width="133.786" height="93.65" viewBox="0 0 133.786 93.65">
  <path id="Icon_awesome-users" data-name="Icon awesome-users" d="M20.068,42.386A13.379,13.379,0,1,0,6.689,29.007,13.391,13.391,0,0,0,20.068,42.386Zm93.65,0A13.379,13.379,0,1,0,100.34,29.007,13.391,13.391,0,0,0,113.718,42.386Zm6.689,6.689H107.029A13.339,13.339,0,0,0,97.6,52.963a30.577,30.577,0,0,1,15.7,22.869h13.8a6.682,6.682,0,0,0,6.689-6.689V62.454A13.391,13.391,0,0,0,120.408,49.075Zm-53.515,0A23.413,23.413,0,1,0,43.481,25.663,23.4,23.4,0,0,0,66.893,49.075Zm16.054,6.689H81.212a32.325,32.325,0,0,1-28.639,0H50.839A24.088,24.088,0,0,0,26.757,79.846v6.02A10.037,10.037,0,0,0,36.791,95.9H97a10.037,10.037,0,0,0,10.034-10.034v-6.02A24.088,24.088,0,0,0,82.947,55.765Zm-46.762-2.8a13.339,13.339,0,0,0-9.428-3.888H13.379A13.391,13.391,0,0,0,0,62.454v6.689a6.682,6.682,0,0,0,6.689,6.689H20.465A30.654,30.654,0,0,1,36.185,52.963Z" transform="translate(0 -2.25)"/>
</svg>
