<svg xmlns="http://www.w3.org/2000/svg" width="33.959" height="30.18" viewBox="0 0 33.959 30.18">
  <path id="Icon_awesome-edit" data-name="Icon awesome-edit" d="M23.736,4.906l5.318,5.318a.576.576,0,0,1,0,.814L16.178,23.914l-5.471.607a1.147,1.147,0,0,1-1.268-1.268l.607-5.471L22.923,4.906A.576.576,0,0,1,23.736,4.906Zm9.551-1.35L30.41.679a2.306,2.306,0,0,0-3.254,0L25.069,2.766a.576.576,0,0,0,0,.814L30.387,8.9a.576.576,0,0,0,.814,0l2.087-2.087a2.306,2.306,0,0,0,0-3.254ZM22.64,20.412v6H3.773V7.548H17.322a.725.725,0,0,0,.5-.206l2.358-2.358a.707.707,0,0,0-.5-1.209H2.83A2.831,2.831,0,0,0,0,6.6V27.357a2.831,2.831,0,0,0,2.83,2.83H23.583a2.831,2.831,0,0,0,2.83-2.83v-9.3a.709.709,0,0,0-1.209-.5l-2.358,2.358A.725.725,0,0,0,22.64,20.412Z" transform="translate(0 -0.007)"/>
</svg>
