<svg xmlns="http://www.w3.org/2000/svg" width="66.374" height="51.615" viewBox="0 0 66.374 51.615">
  <path id="Icon_awesome-home" data-name="Icon awesome-home" d="M32.306,15.644,11.062,33.14V52.024a1.844,1.844,0,0,0,1.844,1.844l12.912-.033a1.844,1.844,0,0,0,1.834-1.844V40.963A1.844,1.844,0,0,1,29.5,39.119H36.87a1.844,1.844,0,0,1,1.844,1.844v11.02a1.844,1.844,0,0,0,1.844,1.849l12.907.036a1.844,1.844,0,0,0,1.844-1.844v-18.9L34.069,15.644A1.4,1.4,0,0,0,32.306,15.644ZM65.863,27.536,56.23,19.6V3.636a1.383,1.383,0,0,0-1.383-1.383H48.395a1.383,1.383,0,0,0-1.383,1.383V12L36.7,3.515a5.531,5.531,0,0,0-7.029,0L.5,27.536a1.383,1.383,0,0,0-.184,1.947l2.938,3.572a1.383,1.383,0,0,0,1.948.188l27.1-22.323a1.4,1.4,0,0,1,1.763,0l27.1,22.323a1.383,1.383,0,0,0,1.947-.184l2.938-3.572a1.383,1.383,0,0,0-.2-1.951Z" transform="translate(0.001 -2.254)" fill="#00437a"/>
</svg>
