<svg xmlns="http://www.w3.org/2000/svg" width="112.5" height="100" viewBox="0 0 112.5 100">
  <path id="Icon_awesome-boxes" data-name="Icon awesome-boxes" d="M109.375,56.25H93.75V75L87.5,70.84,81.25,75V56.25H65.625A3.134,3.134,0,0,0,62.5,59.375v37.5A3.134,3.134,0,0,0,65.625,100h43.75a3.134,3.134,0,0,0,3.125-3.125v-37.5A3.134,3.134,0,0,0,109.375,56.25Zm-75-12.5h43.75a3.134,3.134,0,0,0,3.125-3.125V3.125A3.134,3.134,0,0,0,78.125,0H62.5V18.75l-6.25-4.16L50,18.75V0H34.375A3.134,3.134,0,0,0,31.25,3.125v37.5A3.134,3.134,0,0,0,34.375,43.75Zm12.5,12.5H31.25V75L25,70.84,18.75,75V56.25H3.125A3.134,3.134,0,0,0,0,59.375v37.5A3.134,3.134,0,0,0,3.125,100h43.75A3.134,3.134,0,0,0,50,96.875v-37.5A3.134,3.134,0,0,0,46.875,56.25Z"/>
</svg>
